<svg width="27" height="24" viewBox="0 0 27 24" fill="none" xmlns="http://www.w3.org/2000/svg">
<g clip-path="url(#clip0)">
<path fill-rule="evenodd" clip-rule="evenodd" d="M3.375 23.25V3C3.375 2.20435 3.73058 1.44129 4.36351 0.87868C4.99645 0.316071 5.85489 0 6.75 0L20.25 0C21.1451 0 22.0035 0.316071 22.6365 0.87868C23.2694 1.44129 23.625 2.20435 23.625 3V23.25C23.6251 23.3802 23.5871 23.5083 23.5146 23.6215C23.4421 23.7347 23.3378 23.8291 23.2117 23.8956C23.0857 23.962 22.9424 23.9982 22.7959 24.0004C22.6494 24.0027 22.5048 23.971 22.3763 23.9085L13.5 19.6035L4.62375 23.9085C4.49521 23.971 4.35058 24.0027 4.20408 24.0004C4.05758 23.9982 3.91427 23.962 3.78825 23.8956C3.66224 23.8291 3.55787 23.7347 3.4854 23.6215C3.41294 23.5083 3.37489 23.3802 3.375 23.25ZM14.3438 6.75C14.3438 6.55109 14.2549 6.36032 14.0966 6.21967C13.9384 6.07902 13.7238 6 13.5 6C13.2762 6 13.0616 6.07902 12.9034 6.21967C12.7451 6.36032 12.6562 6.55109 12.6562 6.75V9H10.125C9.90122 9 9.68661 9.07902 9.52838 9.21967C9.37015 9.36032 9.28125 9.55109 9.28125 9.75C9.28125 9.94891 9.37015 10.1397 9.52838 10.2803C9.68661 10.421 9.90122 10.5 10.125 10.5H12.6562V12.75C12.6562 12.9489 12.7451 13.1397 12.9034 13.2803C13.0616 13.421 13.2762 13.5 13.5 13.5C13.7238 13.5 13.9384 13.421 14.0966 13.2803C14.2549 13.1397 14.3438 12.9489 14.3438 12.75V10.5H16.875C17.0988 10.5 17.3134 10.421 17.4716 10.2803C17.6299 10.1397 17.7188 9.94891 17.7188 9.75C17.7188 9.55109 17.6299 9.36032 17.4716 9.21967C17.3134 9.07902 17.0988 9 16.875 9H14.3438V6.75Z" fill="#F4F9FF"/>
</g>
<defs>
<clipPath id="clip0">
<rect width="27" height="24" fill="white"/>
</clipPath>
</defs>
</svg>
