<svg width="23" height="23" viewBox="0 0 23 23" fill="none" xmlns="http://www.w3.org/2000/svg">
<path d="M0.625 1.83333V21.1667C0.625 21.4871 0.752306 21.7945 0.978913 22.0211C1.20552 22.2477 1.51286 22.375 1.83333 22.375H21.1667C21.4871 22.375 21.7945 22.2477 22.0211 22.0211C22.2477 21.7945 22.375 21.4871 22.375 21.1667V1.83333C22.375 1.51286 22.2477 1.20552 22.0211 0.978913C21.7945 0.752306 21.4871 0.625 21.1667 0.625H1.83333C1.51286 0.625 1.20552 0.752306 0.978913 0.978913C0.752306 1.20552 0.625 1.51286 0.625 1.83333V1.83333ZM10.2917 5.45833H12.7083V7.875H10.2917V5.45833ZM10.2917 10.2917H12.7083V17.5417H10.2917V10.2917Z" fill="#F4F9FF"/>
</svg>
