<svg width="80" height="76" viewBox="0 0 80 76" fill="none" xmlns="http://www.w3.org/2000/svg">
<path d="M19.224 35.956C18.456 36.508 17.472 36.904 16.272 37.144C15.096 37.384 13.884 37.504 12.636 37.504C11.124 37.504 9.684 37.276 8.316 36.82C6.972 36.34 5.784 35.584 4.752 34.552C3.72 33.496 2.892 32.14 2.268 30.484C1.668 28.804 1.368 26.776 1.368 24.4C1.368 21.928 1.704 19.864 2.376 18.208C3.072 16.528 3.96 15.184 5.04 14.176C6.144 13.144 7.368 12.412 8.712 11.98C10.056 11.524 11.4 11.296 12.744 11.296C14.184 11.296 15.396 11.392 16.38 11.584C17.388 11.776 18.216 12.004 18.864 12.268L17.892 16.444C17.34 16.18 16.68 15.988 15.912 15.868C15.168 15.748 14.256 15.688 13.176 15.688C11.184 15.688 9.576 16.396 8.352 17.812C7.152 19.228 6.552 21.424 6.552 24.4C6.552 25.696 6.696 26.884 6.984 27.964C7.272 29.02 7.704 29.932 8.28 30.7C8.88 31.444 9.612 32.032 10.476 32.464C11.364 32.872 12.384 33.076 13.536 33.076C14.616 33.076 15.528 32.968 16.272 32.752C17.016 32.536 17.664 32.26 18.216 31.924L19.224 35.956ZM24.9334 11.8H29.8654V37H24.9334V11.8ZM43.119 23.86L41.139 19.9H40.959L41.535 23.86V37H36.855V11.62H40.455L49.995 25.048L51.903 28.9H52.083L51.507 25.048V11.8H56.187V37.18H52.587L43.119 23.86ZM62.6752 11.8H77.6152V16.192H67.6072V22.06H76.7152V26.452H67.6072V32.608H77.7952V37H62.6752V11.8Z" fill="#EDEEEF"/>
<path d="M3.16 40.8H18.1V45.192H8.092V51.42H17.308V55.812H8.092V66H3.16V40.8ZM37.3893 66H21.4413V40.8H26.3733V61.608H37.3893V66ZM39.9334 40.8H54.8734V45.192H44.8654V51.06H53.9734V55.452H44.8654V61.608H55.0534V66H39.9334V40.8ZM64.682 53.184L57.662 40.8H63.602L67.49 48.072L68.354 50.628L69.182 48.072L73.25 40.8H78.614L71.342 52.932L78.974 66H73.106L68.678 58.224L67.706 55.56L66.77 58.224L62.306 66H56.942L64.682 53.184Z" fill="#1E90FF"/>
</svg>
